<svg xmlns="http://www.w3.org/2000/svg" width="96" height="96" viewBox="0 0 64 64" role="img" aria-label="Image grid splitter icon">
  <defs>
    <linearGradient id="edge" x1="0%" y1="0%" x2="100%" y2="100%">
      <stop offset="0%" stop-color="#4DD0FF"/>
      <stop offset="100%" stop-color="#7C4DFF"/>
    </linearGradient>
    <linearGradient id="panel" x1="0%" y1="0%" x2="0%" y2="100%">
      <stop offset="0%" stop-color="#0E1A36"/>
      <stop offset="100%" stop-color="#0A0F1F"/>
    </linearGradient>
    <linearGradient id="accent" x1="0%" y1="0%" x2="100%" y2="0%">
      <stop offset="0%" stop-color="#00E5FF"/>
      <stop offset="100%" stop-color="#7C4DFF"/>
    </linearGradient>
    <radialGradient id="glow" cx="50%" cy="50%" r="60%">
      <stop offset="0%" stop-color="#1F4FFF" stop-opacity="0.45"/>
      <stop offset="100%" stop-color="#1F4FFF" stop-opacity="0"/>
    </radialGradient>
    <filter id="shadow" x="-20%" y="-20%" width="140%" height="140%" color-interpolation-filters="sRGB">
      <feDropShadow dx="0" dy="4" stdDeviation="6" flood-color="#0FF" flood-opacity="0.25"/>
    </filter>
  </defs>

  <rect x="4" y="4" width="56" height="56" rx="14" fill="url(#panel)" stroke="url(#edge)" stroke-width="2.5" filter="url(#shadow)"/>
  <circle cx="32" cy="32" r="28" fill="url(#glow)"/>

  <rect x="16" y="16" width="32" height="32" rx="9" fill="#0E1528" stroke="url(#edge)" stroke-width="2" transform="rotate(8 32 32)"/>
  <rect x="20" y="20" width="24" height="24" rx="6" fill="url(#accent)" fill-opacity="0.08" stroke="url(#edge)" stroke-opacity="0.6" stroke-width="1.5" transform="rotate(-6 32 32)"/>

  <g fill="none" stroke="url(#accent)" stroke-width="1.5" stroke-linecap="round">
    <path d="M14 30h9M41 30h9"/>
    <path d="M30 14v9M30 41v9"/>
    <path d="M18 44l6-6M40 26l6-6M44 46l-6-6M18 18l6 6"/>
  </g>

  <g fill="url(#accent)" filter="url(#shadow)">
    <rect x="24" y="24" width="6" height="6" rx="1.5"/>
    <rect x="34" y="24" width="6" height="6" rx="1.5"/>
    <rect x="24" y="34" width="6" height="6" rx="1.5"/>
    <rect x="34" y="34" width="6" height="6" rx="1.5"/>
  </g>

  <path d="M22 10h20" stroke="url(#accent)" stroke-width="2" stroke-linecap="round" stroke-dasharray="4 3" opacity="0.6"/>
</svg>
